<?xml version="1.0" standalone="no"?><!DOCTYPE svg PUBLIC "-//W3C//DTD SVG 1.1//EN" "http://www.w3.org/Graphics/SVG/1.1/DTD/svg11.dtd"><svg t="1514903439786" class="icon" style="" viewBox="0 0 1024 1024" version="1.1" xmlns="http://www.w3.org/2000/svg" p-id="1699" xmlns:xlink="http://www.w3.org/1999/xlink" width="128" height="128"><defs><style type="text/css"></style></defs><path d="M905.147 118.207H118.51c-28.964 0-52.446 23.507-52.446 52.446v681.754c0 28.983 23.482 52.444 52.446 52.444h786.636c28.963 0 52.445-23.456 52.445-52.444V170.653c0-28.94-23.482-52.446-52.445-52.446z m0 707.977c0 14.49-11.728 26.223-26.219 26.223h-734.2c-14.49 0-26.217-11.732-26.217-26.223V723.673L302.055 533.65c29.5-31.958 52.444 0 52.444 0l104.887 104.885 209.77-209.768c27.861-31.959 52.445 0 52.445 0l183.55 183.55-0.004 213.866z m0-281.062L742.083 378.806c-54.9-58.201-90.957-1.663-90.957-1.663l-191.74 194.203-89.315-95.052c-40.972-53.263-85.224 5.759-85.224 5.759L118.511 651.935v-455.04c0-14.493 11.726-26.247 26.218-26.247h734.2c14.492 0 26.223 11.754 26.223 26.247l-0.005 348.227zM249.615 275.534c-28.96 0-52.446 23.506-52.446 52.446 0 28.984 23.486 52.441 52.446 52.441 28.96 0 52.44-23.457 52.44-52.441 0-28.94-23.48-52.446-52.44-52.446z m0 0" fill="#707070" p-id="1700"></path></svg>